<svg width="1524" height="389" viewBox="0 0 1524 389" fill="none" xmlns="http://www.w3.org/2000/svg">
<path d="M130.492 140.661C157.701 145.013 191.011 156.197 216.069 182.743C219.459 186.331 222.639 190.109 225.593 194.058C222.625 197.996 219.446 201.773 216.069 205.373C190.879 232.006 157.482 243.103 130.185 247.542C137.629 230.701 141.498 212.521 141.551 194.133C141.604 175.746 137.839 157.544 130.492 140.661ZM117.985 131.74C128.754 150.796 134.376 172.287 134.307 194.131C134.237 215.975 128.479 237.431 117.59 256.419C148.749 253.373 190.66 242.754 221.38 210.29C226.172 205.214 230.572 199.788 234.545 194.058C230.583 188.32 226.182 182.893 221.38 177.826C190.66 145.492 149.056 134.83 117.985 131.74Z" fill="#07B494"/>
<path d="M73.418 109.196H96.8662C130.208 109.196 192.751 116.484 236.335 162.951C242.237 169.203 247.602 175.937 252.374 183.082H328.863V204.775H252.461C247.707 211.907 242.356 218.627 236.465 224.862C192.533 271.546 129.772 278.574 96.256 278.618H72.6771L87.8879 260.656C94.2215 253.217 99.4604 244.92 103.447 236.013H17.4128L13.0544 214.32H110.421C113.122 200.873 113.122 187.027 110.421 173.58H12.9236L17.282 151.887H103.622C99.7195 142.958 94.5532 134.63 88.2802 127.157L73.2873 109.196H73.418ZM58.1201 101.95L68.0137 113.794L83.0066 131.756C86.4207 135.83 89.4825 140.184 92.1591 144.772H11.5289L10.1778 150.456L5.81942 172.149L4.03247 180.826H104.275C104.855 185.14 105.147 189.489 105.147 193.842C105.133 198.356 104.813 202.863 104.188 207.335H3.94531L5.73227 216.012L10.0907 237.705L11.2674 243.432H91.331C88.6213 248.009 85.5459 252.361 82.1348 256.447L66.8805 274.409L56.8562 286.21H96.0817C130.949 286.21 195.758 278.835 241.565 230.199C246.839 224.609 251.704 218.65 256.122 212.367H336.055V176.227H256.296C251.883 169.941 247.017 163.982 241.739 158.395C196.15 109.933 131.428 102.514 96.9098 102.384H73.4617H57.9894L58.1201 101.95Z" fill="#07B494"/>
<path d="M171.655 388.822C168.142 388.834 164.688 387.918 161.643 386.166L10.6896 299.11C7.63026 297.348 5.08967 294.811 3.32427 291.754C1.55886 288.697 0.631147 285.228 0.634776 281.698V107.585C0.631147 104.054 1.55886 100.586 3.32427 97.5287C5.08967 94.4717 7.63026 91.9345 10.6896 90.1732L161.643 3.11637C164.697 1.36364 168.156 0.441406 171.676 0.441406C175.197 0.441406 178.656 1.36364 181.709 3.11637L332.663 90.1732C335.711 91.9434 338.241 94.4837 339.998 97.5396C341.755 100.595 342.678 104.06 342.674 107.585V281.698C342.678 285.223 341.755 288.687 339.998 291.743C338.241 294.799 335.711 297.339 332.663 299.11L181.709 386.166C178.649 387.918 175.181 388.834 171.655 388.822ZM25.7502 278.738L171.655 362.835L317.385 278.738V110.283L171.655 26.2735L25.8372 110.501L25.7502 278.738Z" fill="#07B494"/>
<path d="M457 98H500.956V174.426H580.044V98H624V291H580.044V209.929H500.956V291H457V98Z" fill="#231F20"/>
<path d="M745.623 274.732H745.124C739.507 281.135 732.527 286.186 724.703 289.51C716.879 292.834 708.41 294.346 699.925 293.934C670.125 293.934 656 277.626 656 256.643C656 217.015 694.774 215.401 722.912 210.448C743.019 207.052 745.623 205.216 745.623 195.476C745.623 185.736 737.813 179.224 724.463 179.224C711.114 179.224 701.199 186.014 701.199 198.092H662.425C665.527 167.925 680.428 148 724.574 148C770.272 148 787 170.263 787 209.668V291.04H745.734L745.623 274.732ZM746.177 226.7C724.74 232.265 697.045 232.989 697.045 249.575C697.045 258.981 704.855 264.769 715.601 264.769C733.326 264.769 746.177 254.027 746.177 236.941V226.7Z" fill="#231F20"/>
<path d="M944 235.18C941.891 274.393 919.132 294 879.332 294C832.205 294 811 264.479 811 221.389C811 178.299 835.369 149 878.832 149C918.632 149 941.891 169.659 944 208.817H903.423C902.923 193.696 893.764 181.124 879.11 181.124C859.182 181.124 852.632 194.693 852.632 221.389C852.632 248.085 859.182 261.876 879.11 261.876C895.318 261.876 902.923 251.685 903.423 235.18H944Z" fill="#231F20"/>
<path d="M972 98H1013.31V214.629L1060.08 151.476H1112.42L1059.58 214.851L1119 291H1066.66L1013.31 215.404V291H972V98Z" fill="#231F20"/>
<path d="M1132 194.833C1132 135.488 1169.38 95 1226.28 95C1283.18 95 1321 135.321 1321 194.833C1321 254.344 1283.57 294 1226.28 294C1168.99 294 1132 254.233 1132 194.833ZM1276.63 194.833C1276.63 156.674 1256.78 131.55 1226.72 131.55C1196.66 131.55 1176.53 156.674 1176.53 194.833C1176.53 232.991 1196.89 258.171 1226.72 258.171C1256.56 258.171 1276.63 233.047 1276.63 194.556V194.833Z" fill="#0BB494"/>
<path d="M1353 98H1441.72C1481.19 98 1506.59 121.779 1506.59 156.951C1506.59 188.527 1493.23 208.325 1461.07 216.676C1467.41 221.791 1473.01 227.766 1477.7 234.427L1524 291H1471.66L1435.84 246.759C1415.71 222.261 1412.55 220.989 1399.52 220.989H1397.14V290.834H1353V98ZM1432.51 186.481C1452.86 186.481 1461.79 176.306 1461.79 160.379C1461.99 156.766 1461.41 153.152 1460.1 149.78C1458.78 146.408 1456.75 143.358 1454.15 140.837C1451.55 138.315 1448.43 136.379 1445.01 135.162C1441.6 133.944 1437.96 133.473 1434.34 133.78H1396.91V186.481H1432.51Z" fill="#0BB494"/>
</svg>
