<svg width="389" height="389" viewBox="0 0 389 389" fill="none" xmlns="http://www.w3.org/2000/svg">
<path d="M130.492 140.661C157.701 145.013 191.011 156.197 216.069 182.743C219.459 186.331 222.639 190.109 225.593 194.058C222.625 197.996 219.446 201.773 216.069 205.373C190.879 232.006 157.482 243.103 130.185 247.542C137.629 230.701 141.498 212.521 141.551 194.133C141.604 175.746 137.839 157.544 130.492 140.661ZM117.985 131.74C128.754 150.796 134.376 172.287 134.307 194.131C134.237 215.975 128.479 237.431 117.59 256.419C148.749 253.373 190.66 242.754 221.38 210.29C226.172 205.214 230.572 199.788 234.545 194.058C230.583 188.32 226.182 182.893 221.38 177.826C190.66 145.492 149.056 134.83 117.985 131.74Z" fill="#07B494"/>
<path d="M73.418 109.196H96.8662C130.208 109.196 192.751 116.484 236.335 162.951C242.237 169.203 247.602 175.937 252.374 183.082H328.863V204.775H252.461C247.707 211.907 242.356 218.627 236.465 224.862C192.533 271.546 129.772 278.574 96.256 278.618H72.6771L87.8879 260.656C94.2215 253.217 99.4604 244.92 103.447 236.013H17.4128L13.0544 214.32H110.421C113.122 200.873 113.122 187.027 110.421 173.58H12.9236L17.282 151.887H103.622C99.7195 142.958 94.5532 134.63 88.2802 127.157L73.2873 109.196H73.418ZM58.1201 101.95L68.0137 113.794L83.0066 131.756C86.4207 135.83 89.4825 140.184 92.1591 144.772H11.5289L10.1778 150.456L5.81942 172.149L4.03247 180.826H104.275C104.855 185.14 105.147 189.489 105.147 193.842C105.133 198.356 104.813 202.863 104.188 207.335H3.94531L5.73227 216.012L10.0907 237.705L11.2674 243.432H91.331C88.6213 248.009 85.5459 252.361 82.1348 256.447L66.8805 274.409L56.8562 286.21H96.0817C130.949 286.21 195.758 278.835 241.565 230.199C246.839 224.609 251.704 218.65 256.122 212.367H336.055V176.227H256.296C251.883 169.941 247.017 163.982 241.739 158.395C196.15 109.933 131.428 102.514 96.9098 102.384H73.4617H57.9894L58.1201 101.95Z" fill="#07B494"/>
<path d="M171.655 388.822C168.142 388.834 164.688 387.918 161.643 386.166L10.6896 299.11C7.63026 297.348 5.08967 294.811 3.32427 291.754C1.55886 288.697 0.631147 285.228 0.634776 281.698V107.585C0.631147 104.054 1.55886 100.586 3.32427 97.5287C5.08967 94.4717 7.63026 91.9345 10.6896 90.1732L161.643 3.11637C164.697 1.36364 168.156 0.441406 171.676 0.441406C175.197 0.441406 178.656 1.36364 181.709 3.11637L332.663 90.1732C335.711 91.9434 338.241 94.4837 339.998 97.5396C341.755 100.595 342.678 104.06 342.674 107.585V281.698C342.678 285.223 341.755 288.687 339.998 291.743C338.241 294.799 335.711 297.339 332.663 299.11L181.709 386.166C178.649 387.918 175.181 388.834 171.655 388.822ZM25.7502 278.738L171.655 362.835L317.385 278.738V110.283L171.655 26.2735L25.8372 110.501L25.7502 278.738Z" fill="#07B494"/>
</svg>
